<svg width="137" height="35" viewBox="0 0 137 35" fill="none" xmlns="http://www.w3.org/2000/svg">
<path d="M0 0.525024H16.5397C21.1571 0.525024 25.5855 2.31345 28.8505 5.49687C32.1156 8.68028 33.9499 12.9979 33.9499 17.5C33.9499 22.002 32.1156 26.3196 28.8505 29.503C25.5855 32.6865 21.1571 34.4749 16.5397 34.4749V25.7723C18.7899 25.7723 20.9479 24.9007 22.5391 23.3494C24.1302 21.798 25.0241 19.6939 25.0241 17.5C25.0241 15.306 24.1302 13.2019 22.5391 11.6505C20.9479 10.0992 18.7899 9.22765 16.5397 9.22765V9.23012H7.83458V17.0647H0V0.525024Z" fill="white"/>
<rect x="7.84131" y="17.1005" width="8.62366" height="8.62366" fill="#35D175"/>
<path d="M42.0513 34.475V24.241H45.0067L47.2342 33.4223H47.4671L49.6946 24.241H52.6501V34.475H51.1214V25.3521H50.8885L48.6755 34.475H46.0258L43.8129 25.3521H43.5799V34.475H42.0513Z" fill="#35D175"/>
<path d="M54.019 34.475L56.9307 24.241H59.6969L62.5941 34.475H60.9781L60.3084 32.0627H56.3192L55.6495 34.475H54.019ZM56.7123 30.6007H59.9153L58.4303 25.2205H58.1973L56.7123 30.6007Z" fill="#35D175"/>
<path d="M63.9748 34.475V24.241H65.5471V34.475H63.9748Z" fill="#35D175"/>
<path d="M67.6714 34.475V24.241H70.6996L73.4658 33.4223H73.6987V24.241H75.2565V34.475H72.2283L69.4621 25.279H69.2292V34.475H67.6714Z" fill="#35D175"/>
<path d="M77.382 34.475V24.241H80.4102L83.1764 33.4223H83.4093V24.241H84.9671V34.475H81.9389L79.1727 25.279H78.9398V34.475H77.382Z" fill="#35D175"/>
<path d="M87.0926 34.475V24.241H93.513V25.6737H88.6649V28.6124H93.1054V30.0451H88.6649V33.0422H93.5858V34.475H87.0926Z" fill="#35D175"/>
<path d="M97.6564 34.475V25.6737H94.5262V24.241H102.359V25.6737H99.2287V34.475H97.6564Z" fill="#35D175"/>
<path d="M42.0347 18.7586V0.525269H56.7226C57.3641 0.525269 57.955 0.685654 58.4953 1.00642C59.0355 1.3272 59.466 1.7577 59.7868 2.29795C60.1076 2.82131 60.268 3.40377 60.268 4.04531V15.2385C60.268 15.8801 60.1076 16.471 59.7868 17.0112C59.466 17.5346 59.0355 17.9566 58.4953 18.2774C57.955 18.5982 57.3641 18.7586 56.7226 18.7586H42.0347ZM45.656 15.3905H56.5707C56.6551 15.3905 56.731 15.3651 56.7986 15.3145C56.8661 15.247 56.8999 15.171 56.8999 15.0866V4.19725C56.8999 4.11284 56.8661 4.04531 56.7986 3.99466C56.731 3.92713 56.6551 3.89336 56.5707 3.89336H45.656C45.5716 3.89336 45.4956 3.92713 45.4281 3.99466C45.3774 4.04531 45.3521 4.11284 45.3521 4.19725V15.0866C45.3521 15.171 45.3774 15.247 45.4281 15.3145C45.4956 15.3651 45.5716 15.3905 45.656 15.3905Z" fill="white"/>
<path d="M66.5733 18.7586C65.9317 18.7586 65.3408 18.5982 64.8006 18.2774C64.2772 17.9566 63.8551 17.5346 63.5344 17.0112C63.2136 16.471 63.0532 15.8801 63.0532 15.2385V4.04531C63.0532 3.40377 63.2136 2.82131 63.5344 2.29795C63.8551 1.7577 64.2772 1.3272 64.8006 1.00642C65.3408 0.685654 65.9317 0.525269 66.5733 0.525269H77.7665C78.408 0.525269 78.9905 0.685654 79.5138 1.00642C80.0541 1.3272 80.4846 1.7577 80.8054 2.29795C81.1261 2.82131 81.2865 3.40377 81.2865 4.04531V15.2385C81.2865 15.8801 81.1261 16.471 80.8054 17.0112C80.4846 17.5346 80.0541 17.9566 79.5138 18.2774C78.9905 18.5982 78.408 18.7586 77.7665 18.7586H66.5733ZM66.6999 15.3905H77.5892C77.6736 15.3905 77.7496 15.3651 77.8171 15.3145C77.8847 15.247 77.9184 15.171 77.9184 15.0866V4.19725C77.9184 4.11284 77.8847 4.04531 77.8171 3.99466C77.7496 3.92713 77.6736 3.89336 77.5892 3.89336H66.6999C66.6155 3.89336 66.5395 3.92713 66.472 3.99466C66.4213 4.04531 66.396 4.11284 66.396 4.19725V15.0866C66.396 15.171 66.4213 15.247 66.472 15.3145C66.5395 15.3651 66.6155 15.3905 66.6999 15.3905Z" fill="white"/>
<path d="M84.0753 18.7586V0.550592H98.7633C99.4048 0.550592 99.9957 0.710978 100.536 1.03175C101.076 1.35252 101.507 1.78303 101.827 2.32327C102.148 2.84664 102.309 3.42909 102.309 4.07063V8.98349C102.309 9.62504 102.148 10.2159 101.827 10.7562C101.507 11.2964 101.076 11.7269 100.536 12.0477C99.9957 12.3516 99.4048 12.5035 98.7633 12.5035L87.4181 12.5289V18.7586H84.0753ZM87.722 9.13544H98.6113C98.6957 9.13544 98.7717 9.11011 98.8392 9.05947C98.9068 9.00882 98.9405 8.94129 98.9405 8.85687V4.19725C98.9405 4.11284 98.9068 4.04531 98.8392 3.99466C98.7717 3.92713 98.6957 3.89336 98.6113 3.89336H87.722C87.6376 3.89336 87.5616 3.92713 87.4941 3.99466C87.4434 4.04531 87.4181 4.11284 87.4181 4.19725V8.85687C87.4181 8.94129 87.4434 9.00882 87.4941 9.05947C87.5616 9.11011 87.6376 9.13544 87.722 9.13544Z" fill="white"/>
<path fill-rule="evenodd" clip-rule="evenodd" d="M136.646 0.751889H109.731V11.8229H136.646V0.751889ZM109.504 0.525024V12.0497H136.873V0.525024H109.504Z" fill="white"/>
<path d="M111.69 9.78112V9.20216H112.688V3.37266H111.69V2.7937H115.154C115.553 2.7937 115.909 2.8669 116.222 3.01331C116.535 3.15971 116.777 3.366 116.95 3.63219C117.13 3.89172 117.22 4.19451 117.22 4.54056V4.62041C117.22 4.94649 117.157 5.21601 117.03 5.42896C116.904 5.64191 116.751 5.80827 116.571 5.92806C116.391 6.04784 116.215 6.13435 116.042 6.18759V6.30737C116.215 6.3473 116.391 6.43049 116.571 6.55692C116.757 6.67671 116.911 6.84308 117.03 7.05603C117.157 7.26898 117.22 7.53849 117.22 7.86457V7.96439C117.22 8.34371 117.127 8.66979 116.94 8.94263C116.761 9.21547 116.511 9.42509 116.192 9.5715C115.879 9.71124 115.523 9.78112 115.124 9.78112H111.69ZM113.327 9.20216H115.064C115.563 9.20216 115.939 9.0857 116.192 8.85279C116.451 8.61988 116.581 8.30711 116.581 7.91448V7.83462C116.581 7.442 116.451 7.12923 116.192 6.89631C115.939 6.6634 115.563 6.54694 115.064 6.54694H113.327V9.20216ZM113.327 5.96799H115.104C115.563 5.96799 115.922 5.85486 116.182 5.6286C116.448 5.39568 116.581 5.09289 116.581 4.72023V4.62041C116.581 4.24775 116.448 3.94829 116.182 3.72203C115.922 3.48912 115.563 3.37266 115.104 3.37266H113.327V5.96799Z" fill="white"/>
<path d="M118.659 9.78112V2.7937H122.881V3.37266H119.298V5.98795H122.602V6.56691H119.298V9.20216H122.921V9.78112H118.659Z" fill="white"/>
<path d="M126.079 9.78112V3.37266H123.744V2.7937H129.054V3.37266H126.718V9.78112H126.079Z" fill="white"/>
<path d="M128.813 9.78112L131.099 2.7937H132.236L134.522 9.78112H133.854L133.255 7.92446H130.08L129.481 9.78112H128.813ZM130.26 7.3455H133.075L131.727 3.17302H131.608L130.26 7.3455Z" fill="white"/>
</svg>
